<?xml version="1.0" standalone="no"?>
<!DOCTYPE svg PUBLIC "-//W3C//DTD SVG 20010904//EN"
 "http://www.w3.org/TR/2001/REC-SVG-20010904/DTD/svg10.dtd">
<svg version="1.0" xmlns="http://www.w3.org/2000/svg"
 width="165.000000pt" height="165.000000pt" viewBox="0 0 165.000000 165.000000"
 preserveAspectRatio="xMidYMid meet">
<metadata>
Created by potrace 1.11, written by Peter Selinger 2001-2013
</metadata>
<g transform="translate(0.000000,165.000000) scale(0.100000,-0.100000)"
fill="#000000" stroke="none">
<path d="M750 1502 c-39 -21 -586 -337 -666 -385 -88 -52 -84 -25 -84 -527 l0
-441 147 2 c148 3 238 15 280 38 17 8 122 11 405 8 344 -2 388 -4 428 -21 35
-14 82 -19 218 -23 l172 -5 0 51 c0 39 -4 51 -15 51 -13 0 -15 50 -15 391 0
422 0 426 -54 459 -23 15 -167 98 -231 135 -47 26 -193 111 -360 208 -133 77
-172 87 -225 59z"/>
</g>
</svg>
