<?xml version="1.0" encoding="UTF-8"?>
<svg width="146px" height="46px" viewBox="0 0 146 46" version="1.1" xmlns="http://www.w3.org/2000/svg" xmlns:xlink="http://www.w3.org/1999/xlink">
    <!-- Generator: Sketch 61.2 (89653) - https://sketch.com -->
    <title>logo</title>
    <desc>Created with Sketch.</desc>
    <g id="Home" stroke="none" stroke-width="1" fill="none" fill-rule="evenodd">
        <g id="Homepage" transform="translate(-51.000000, -8.000000)">
            <g id="Top-navigation">
                <g id="logo" transform="translate(51.000000, 8.000000)">
                    <g id="emblem">
                        <path d="M0,44 L0,17.1600537 C-0.00247972958,15.8276575 0.709909596,14.5943646 1.8706013,13.9216681 L25.1286373,0.500934077 C26.2846167,-0.166978026 27.7138475,-0.166978026 28.8698269,0.500934077 L52.1293987,13.9216681 C53.2900904,14.5943646 54.0024797,15.8276575 54,17.1600537 L54,44" id="Path" fill="#1F5FA8" fill-rule="nonzero"></path>
                        <path d="M55,43.9984264 C44.222131,43.9984264 44.935567,43.8095987 43.6286394,43.6191975 C38.5613742,42.8859166 36.2621785,36.6278521 34.2496035,30.7694729 C31.6964994,23.3375295 29.7960802,16 27.5,16 C25.2039198,16 23.3035006,23.3359559 20.7503965,30.7694729 C18.7378215,36.6294256 16.4386258,42.8859166 11.3713606,43.620771 C10.064433,43.8111723 10.777869,44 0,44" id="Path" stroke="#FFFFFF" stroke-width="3.27000013"></path>
                    </g>
                    <path d="M77.1,40 L77.1,24.1 L83.25,24.1 L83.25,22.5 L69.1,22.5 L69.1,24.1 L75.25,24.1 L75.25,40 L77.1,40 Z M91.9888889,34 L91.9888889,32.45 L85.4388889,32.45 L85.4388889,34 L91.9888889,34 Z M101.752778,40.125 C102.286111,40.125 102.798611,40.0458333 103.290278,39.8875 C103.781944,39.7291667 104.194444,39.5 104.527778,39.2 L104.527778,39.2 L103.902778,37.925 C103.652778,38.1416667 103.356944,38.3083333 103.015278,38.425 C102.673611,38.5416667 102.319444,38.6 101.952778,38.6 C101.219444,38.6 100.656944,38.3958333 100.265278,37.9875 C99.8736111,37.5791667 99.6777778,36.9833333 99.6777778,36.2 L99.6777778,36.2 L99.6777778,28.35 L103.677778,28.35 L103.677778,26.85 L99.6777778,26.85 L99.6777778,23.975 L97.9027778,23.975 L97.9027778,26.85 L95.5527778,26.85 L95.5527778,28.35 L97.9027778,28.35 L97.9027778,36.3 C97.9027778,37.5166667 98.2361111,38.4583333 98.9027778,39.125 C99.5694444,39.7916667 100.519444,40.125 101.752778,40.125 Z M114.241667,40.125 C115.291667,40.125 116.254167,39.9416667 117.129167,39.575 C118.004167,39.2083333 118.733333,38.675 119.316667,37.975 L119.316667,37.975 L118.316667,36.825 C117.816667,37.3916667 117.225,37.8208333 116.541667,38.1125 C115.858333,38.4041667 115.108333,38.55 114.291667,38.55 C112.841667,38.55 111.641667,38.1291667 110.691667,37.2875 C109.741667,36.4458333 109.216667,35.3416667 109.116667,33.975 L109.116667,33.975 L120.116667,33.975 L120.141667,33.425 C120.141667,32.125 119.866667,30.9708333 119.316667,29.9625 C118.766667,28.9541667 118.008333,28.1666667 117.041667,27.6 C116.075,27.0333333 114.983333,26.75 113.766667,26.75 C112.55,26.75 111.454167,27.0333333 110.479167,27.6 C109.504167,28.1666667 108.7375,28.9583333 108.179167,29.975 C107.620833,30.9916667 107.341667,32.1416667 107.341667,33.425 C107.341667,34.7083333 107.633333,35.8583333 108.216667,36.875 C108.8,37.8916667 109.6125,38.6875 110.654167,39.2625 C111.695833,39.8375 112.891667,40.125 114.241667,40.125 Z M118.441667,32.65 L109.116667,32.65 C109.233333,31.35 109.720833,30.2958333 110.579167,29.4875 C111.4375,28.6791667 112.5,28.275 113.766667,28.275 C115.05,28.275 116.120833,28.6791667 116.979167,29.4875 C117.8375,30.2958333 118.325,31.35 118.441667,32.65 L118.441667,32.65 Z M128.680556,40.125 C130.380556,40.125 131.709722,39.7875 132.668056,39.1125 C133.626389,38.4375 134.105556,37.525 134.105556,36.375 C134.105556,35.525 133.880556,34.8583333 133.430556,34.375 C132.980556,33.8916667 132.438889,33.55 131.805556,33.35 C131.172222,33.15 130.330556,32.95 129.280556,32.75 C128.430556,32.6 127.763889,32.4541667 127.280556,32.3125 C126.797222,32.1708333 126.393056,31.95 126.068056,31.65 C125.743056,31.35 125.580556,30.95 125.580556,30.45 C125.580556,29.8 125.868056,29.275 126.443056,28.875 C127.018056,28.475 127.872222,28.275 129.005556,28.275 C130.505556,28.275 131.797222,28.65 132.880556,29.4 L132.880556,29.4 L133.655556,27.975 C133.105556,27.6083333 132.405556,27.3125 131.555556,27.0875 C130.705556,26.8625 129.855556,26.75 129.005556,26.75 C127.372222,26.75 126.097222,27.1 125.180556,27.8 C124.263889,28.5 123.805556,29.4 123.805556,30.5 C123.805556,31.3833333 124.034722,32.075 124.493056,32.575 C124.951389,33.075 125.505556,33.4291667 126.155556,33.6375 C126.805556,33.8458333 127.663889,34.05 128.730556,34.25 C129.530556,34.3833333 130.172222,34.5208333 130.655556,34.6625 C131.138889,34.8041667 131.538889,35.0125 131.855556,35.2875 C132.172222,35.5625 132.330556,35.9416667 132.330556,36.425 C132.330556,37.1083333 132.043056,37.6375 131.468056,38.0125 C130.893056,38.3875 130.005556,38.575 128.805556,38.575 C127.905556,38.575 127.038889,38.4375 126.205556,38.1625 C125.372222,37.8875 124.680556,37.5333333 124.130556,37.1 L124.130556,37.1 L123.330556,38.5 C123.880556,38.9666667 124.643056,39.3541667 125.618056,39.6625 C126.593056,39.9708333 127.613889,40.125 128.680556,40.125 Z M142.919444,40.125 C143.452778,40.125 143.965278,40.0458333 144.456944,39.8875 C144.948611,39.7291667 145.361111,39.5 145.694444,39.2 L145.694444,39.2 L145.069444,37.925 C144.819444,38.1416667 144.523611,38.3083333 144.181944,38.425 C143.840278,38.5416667 143.486111,38.6 143.119444,38.6 C142.386111,38.6 141.823611,38.3958333 141.431944,37.9875 C141.040278,37.5791667 140.844444,36.9833333 140.844444,36.2 L140.844444,36.2 L140.844444,28.35 L144.844444,28.35 L144.844444,26.85 L140.844444,26.85 L140.844444,23.975 L139.069444,23.975 L139.069444,26.85 L136.719444,26.85 L136.719444,28.35 L139.069444,28.35 L139.069444,36.3 C139.069444,37.5166667 139.402778,38.4583333 140.069444,39.125 C140.736111,39.7916667 141.686111,40.125 142.919444,40.125 Z" id="T-test" fill="#0A1A36" fill-rule="nonzero"></path>
                </g>
            </g>
        </g>
    </g>
</svg>