<svg width="260" height="292" viewBox="0 0 260 292" fill="none" xmlns="http://www.w3.org/2000/svg">
<path d="M47.1035 208.845C47.946 208.677 48.62 208.508 49.631 208.34C69.6825 205.475 79.961 180.369 90.408 150.376C92.5985 143.804 94.789 137.401 96.9795 131.167C108.269 96.961 115.852 74.382 129.837 74.382C143.823 74.382 151.237 96.961 162.695 131.167C164.717 137.401 166.907 143.973 169.266 150.376C179.713 180.369 189.992 205.475 210.043 208.34C211.054 208.508 211.728 208.677 212.571 208.845C216.109 209.519 219.648 210.193 258.908 210.193C259.077 209.351 259.077 208.508 259.077 207.666V84.6605C259.077 76.5725 254.864 69.1585 247.787 65.283L141.127 3.7805C134.218 -0.263503 125.625 -0.263503 118.716 3.7805L11.7185 65.283C4.81002 69.327 0.429016 76.741 0.429016 84.6605V207.666C0.429016 208.508 0.429017 209.351 0.597517 210.193C40.0265 210.193 43.3965 209.519 47.1035 208.845Z" fill="#1F5FA8"/>
<path d="M209.706 221.82C209.032 221.651 208.527 221.651 207.684 221.483C178.197 217.27 166.065 182.559 156.46 154.757C154.101 148.185 152.079 141.614 149.889 135.379C145.676 122.405 141.632 110.272 137.757 101.342C133.207 90.895 130.511 88.3675 129.669 87.6935C128.826 88.3675 125.962 90.895 121.581 101.342C117.705 110.441 113.661 122.573 109.449 135.379C107.427 141.782 105.236 148.185 102.877 154.757C93.2725 182.559 81.1406 217.27 51.6531 221.483C50.8106 221.651 50.305 221.651 49.631 221.82C45.25 222.662 41.7116 223.336 7.00055 223.336C8.51705 224.853 10.0336 226.201 11.8871 227.212L118.548 288.714C125.456 292.758 134.05 292.758 140.958 288.714L247.619 227.212C249.472 226.201 251.157 224.853 252.505 223.336C217.626 223.168 214.087 222.494 209.706 221.82Z" fill="#1F5FA8"/>
</svg>
