<svg width="311" height="457" viewBox="0 0 311 457" fill="none" xmlns="http://www.w3.org/2000/svg">
<g clip-path="url(#clip0)">
<path d="M46.8 398.3C47.4 398.3 47.8 398.8 47.8 399.4V405.6C47.8 406.2 47.4 406.6 46.8 406.6H28.6V454.5C28.6 455.1 28.1 455.5 27.5 455.5H20.2C19.6 455.5 19.2 455.1 19.2 454.5V406.6H1C0.4 406.6 0 406.2 0 405.6V399.4C0 398.8 0.4 398.3 1 398.3H46.8Z" fill="#1F5FA8"/>
<path d="M61.7 435.6C61.1 435.6 60.7 435.2 60.7 434.6V428.6C60.7 428 61.1 427.6 61.7 427.6H87.2C87.8 427.6 88.2 428 88.2 428.6V434.6C88.2 435.2 87.8 435.6 87.2 435.6H61.7Z" fill="#1F5FA8"/>
<path d="M148 398.3C148.6 398.3 149 398.8 149 399.4V405.6C149 406.2 148.6 406.6 148 406.6H129.9V454.5C129.9 455.1 129.4 455.5 128.8 455.5H121.5C120.9 455.5 120.5 455.1 120.5 454.5V406.6H102.3C101.7 406.6 101.3 406.2 101.3 405.6V399.4C101.3 398.8 101.7 398.3 102.3 398.3H148Z" fill="#1F5FA8"/>
<path d="M201.3 398.3C201.9 398.3 202.3 398.8 202.3 399.4V405.6C202.3 406.2 201.9 406.6 201.3 406.6H169.7V422.6H196.9C197.5 422.6 197.9 423 197.9 423.6V429.9C197.9 430.4 197.5 430.9 196.9 430.9H169.7V447.1H201.3C201.9 447.1 202.3 447.6 202.3 448.1V454.4C202.3 455 201.9 455.4 201.3 455.4H161.3C160.8 455.4 160.3 455 160.3 454.4V399.3C160.3 398.7 160.8 398.2 161.3 398.2H201.3V398.3Z" fill="#1F5FA8"/>
<path d="M213.7 451C213.1 450.7 212.9 450.2 213.3 449.6L216.2 443.4C216.5 442.9 216.9 442.6 217.5 443.1C221.2 445.4 226.2 448.4 233.4 448.4C236.9 448.4 239.6 447.6 241.4 446.2C243.6 444.6 244.5 442.3 244.5 439.7C244.5 435.8 241.4 433.7 237.3 432.1C232.5 430.2 226.9 429.2 221.5 426.2C216.9 423.6 213.6 420 213.6 413.5C213.6 408.8 215.4 404.8 219.1 402C222.6 399.2 227.8 397.6 234.7 397.6C242.5 397.6 248.4 399.7 252.2 401.8C252.8 402.1 252.9 402.6 252.6 403.2L249.7 409.3C249.4 409.9 248.9 410.1 248.3 409.7C244.3 407.3 239.3 405.7 234.3 405.7C230.5 405.7 227.7 406.5 226.1 408C224.5 409.3 223.7 410.9 223.7 413C223.7 416.7 226.8 418.6 231.5 420.2C236.9 422.1 242.9 423.1 247.9 426.2C251.8 428.6 255 432.6 255 438.8C255 444.4 252.6 448.8 248.8 451.8C245.1 454.7 239.8 456.3 233.8 456.3C224.4 456.4 217.9 453.6 213.7 451Z" fill="#1F5FA8"/>
<path d="M309.9 398.3C310.5 398.3 310.9 398.8 310.9 399.4V405.6C310.9 406.2 310.5 406.6 309.9 406.6H291.8V454.5C291.8 455.1 291.3 455.5 290.7 455.5H283.4C282.8 455.5 282.4 455.1 282.4 454.5V406.6H264.2C263.6 406.6 263.2 406.2 263.2 405.6V399.4C263.2 398.8 263.6 398.3 264.2 398.3H309.9Z" fill="#1F5FA8"/>
<path d="M63.4 237.7C64.3 237.5 65.2 237.4 66.3 237.2C89.2 233.9 100.9 205.3 112.8 171C115.4 163.6 117.8 156.2 120.2 149C133.2 109.9 141.7 84.1 157.6 84.1C173.5 84.1 182.1 109.9 195 149C197.4 156.2 199.8 163.6 202.4 171C214.3 205.3 226 234 248.9 237.2C250 237.4 250.9 237.5 251.8 237.7C255.9 238.5 259.9 239.2 304.7 239.2C304.8 238.3 304.9 237.3 304.9 236.4V95.9C304.9 86.7 300 78.3 292.1 73.7L170.3 3.4C162.4 -1.2 152.6 -1.2 144.7 3.4L23 73.7C15.1 78.3 10.2 86.7 10.2 95.9V236.4C10.2 237.3 10.3 238.3 10.4 239.2C55.3 239.2 59.3 238.5 63.4 237.7Z" fill="#1F5FA8"/>
<path d="M249.1 252.5C248.4 252.4 247.7 252.2 246.8 252.1C213 247.2 199.3 207.7 188.3 175.9C185.7 168.4 183.2 160.9 180.8 153.7C175.9 139 171.3 125.1 166.9 114.8C161.8 102.9 158.7 100 157.6 99.3C156.6 100 153.4 102.9 148.3 114.8C143.9 125.1 139.3 139 134.4 153.7C132 160.9 129.5 168.4 126.9 175.9C115.9 207.7 102.2 247.2 68.4 252.1C67.5 252.2 66.8 252.4 66.1 252.5C61.2 253.4 57.1 254.1 17.3 254.3C18.9 256 20.8 257.5 22.9 258.7L144.6 329C152.5 333.6 162.3 333.6 170.2 329L291.9 258.7C294 257.5 295.9 256 297.5 254.3C258.1 254.1 254.1 253.4 249.1 252.5Z" fill="#1F5FA8"/>
</g>
<defs>
<clipPath id="clip0">
<path d="M0 0H310.9V456.4H0V0Z" fill="white"/>
</clipPath>
</defs>
</svg>
