<svg width="646" height="215" viewBox="0 0 646 215" fill="none" xmlns="http://www.w3.org/2000/svg" preserveAspectRatio="xMidYMid meet">
<g clip-path="url(#clip0)">
<path d="M318.5 70.3C319.2 70.3 319.7 70.9 319.7 71.7V79.4C319.7 80.1 319.2 80.6 318.5 80.6H296V139.9C296 140.6 295.4 141.1 294.6 141.1H285.6C284.9 141.1 284.4 140.6 284.4 139.9V80.6H261.8C261.1 80.6 260.6 80.1 260.6 79.4V71.7C260.6 71 261.1 70.3 261.8 70.3H318.5Z" fill="#1F5FA8"/>
<path d="M337 116.5C336.3 116.5 335.8 116 335.8 115.3V107.8C335.8 107.1 336.3 106.6 337 106.6H368.6C369.3 106.6 369.8 107.1 369.8 107.8V115.3C369.8 116 369.3 116.5 368.6 116.5H337Z" fill="#1F5FA8"/>
<path d="M443.8 70.3C444.5 70.3 445 70.9 445 71.7V79.4C445 80.1 444.5 80.6 443.8 80.6H421.3V139.9C421.3 140.6 420.7 141.1 419.9 141.1H410.9C410.2 141.1 409.7 140.6 409.7 139.9V80.6H387.1C386.4 80.6 385.9 80.1 385.9 79.4V71.7C385.9 71 386.4 70.3 387.1 70.3H443.8Z" fill="#1F5FA8"/>
<path d="M509.7 70.3C510.4 70.3 510.9 70.9 510.9 71.7V79.4C510.9 80.1 510.4 80.6 509.7 80.6H470.6V100.5H504.3C505 100.5 505.5 101 505.5 101.7V109.5C505.5 110.1 505 110.7 504.3 110.7H470.6V130.8H509.7C510.4 130.8 510.9 131.4 510.9 132V139.8C510.9 140.5 510.4 141 509.7 141H460.2C459.6 141 459 140.5 459 139.8V71.6C459 70.9 459.6 70.2 460.2 70.2H509.7V70.3Z" fill="#1F5FA8"/>
<path d="M525.1 135.5C524.4 135.1 524.2 134.5 524.6 133.7L528.2 126C528.5 125.4 529 125.1 529.9 125.6C534.5 128.4 540.7 132.2 549.6 132.2C554 132.2 557.3 131.2 559.5 129.5C562.2 127.5 563.3 124.6 563.3 121.5C563.3 116.7 559.5 114 554.4 112C548.5 109.6 541.5 108.5 534.8 104.7C529.1 101.5 525 97 525 89C525 83.2 527.3 78.2 531.8 74.8C536.2 71.4 542.6 69.4 551.1 69.4C560.8 69.4 568.1 72 572.7 74.6C573.4 75 573.5 75.6 573.2 76.4L569.6 84C569.2 84.7 568.6 84.9 567.8 84.5C562.8 81.6 556.7 79.5 550.4 79.5C545.7 79.5 542.3 80.5 540.2 82.3C538.2 83.9 537.2 85.9 537.2 88.5C537.2 93.1 541 95.5 546.9 97.4C553.6 99.8 561 100.9 567.2 104.9C572 107.9 575.9 112.8 575.9 120.5C575.9 127.5 573 132.9 568.2 136.6C563.6 140.2 557.1 142.1 549.6 142.1C538.4 142.1 530.3 138.7 525.1 135.5Z" fill="#1F5FA8"/>
<path d="M644.2 70.3C644.9 70.3 645.4 70.9 645.4 71.7V79.4C645.4 80.1 644.9 80.6 644.2 80.6H621.7V139.9C621.7 140.6 621.1 141.1 620.3 141.1H611.3C610.6 141.1 610.1 140.6 610.1 139.9V80.6H587.5C586.8 80.6 586.3 80.1 586.3 79.4V71.7C586.3 71 586.8 70.3 587.5 70.3H644.2Z" fill="#1F5FA8"/>
<path d="M34.3 153.3C34.9 153.2 35.4 153.1 36.2 153C50.9 150.9 58.5 132.4 66.2 110.3C67.9 105.5 69.4 100.7 71 96.1C79.4 70.9 84.9 54.3 95.2 54.3C105.5 54.3 111 70.9 119.3 96.1C120.8 100.7 122.4 105.5 124.1 110.3C131.8 132.4 139.3 150.9 154.1 153C154.8 153.1 155.4 153.2 156 153.3C158.7 153.8 161.2 154.3 190.1 154.3C190.2 153.7 190.2 153.1 190.2 152.5V61.9C190.2 56 187 50.5 181.9 47.6L103.3 2.2C98.2 -0.800003 91.9 -0.800003 86.8 2.2L8.3 47.5C3.2 50.5 0 56 0 61.9V152.5C0 153.1 0 153.7 0.1 154.3C29.1 154.3 31.7 153.8 34.3 153.3Z" fill="#1F5FA8"/>
<path d="M154.1 162.8C153.7 162.7 153.2 162.6 152.6 162.5C130.8 159.4 122 133.9 114.9 113.4C113.2 108.6 111.6 103.7 110.1 99.1C107 89.6 104 80.6 101.1 74C97.8 66.3 95.8 64.4 95.1 64C94.4 64.4 92.4 66.3 89.1 74C86.2 80.7 83.3 89.6 80.1 99.1C78.6 103.8 77 108.6 75.3 113.4C68.2 133.9 59.3 159.4 37.6 162.5C37 162.6 36.6 162.7 36.1 162.8C32.9 163.4 30.3 163.9 4.7 163.9C5.8 165 7 166 8.3 166.7L86.8 212C91.9 215 98.2 215 103.3 212L181.8 166.7C183.2 165.9 184.4 165 185.4 163.9C159.9 163.9 157.3 163.4 154.1 162.8Z" fill="#1F5FA8"/>
</g>
<defs>
<clipPath id="clip0">
<path d="M0 0H645.5V214.4H0V0Z" fill="white"/>
</clipPath>
</defs>
</svg>
