<svg width="311" height="457" viewBox="0 0 311 457" fill="none" xmlns="http://www.w3.org/2000/svg">
<path d="M46.8 398.35C47.4 398.35 47.8 398.85 47.8 399.45V405.65C47.8 406.25 47.4 406.65 46.8 406.65H28.6V454.55C28.6 455.15 28.1 455.55 27.5 455.55H20.2C19.6 455.55 19.2 455.15 19.2 454.55V406.65H1C0.4 406.65 0 406.25 0 405.65V399.45C0 398.85 0.4 398.35 1 398.35H46.8Z" fill="white"/>
<path d="M61.7 435.65C61.1 435.65 60.7 435.25 60.7 434.65V428.65C60.7 428.05 61.1 427.65 61.7 427.65H87.2C87.8 427.65 88.2 428.05 88.2 428.65V434.65C88.2 435.25 87.8 435.65 87.2 435.65H61.7Z" fill="white"/>
<path d="M148 398.35C148.6 398.35 149 398.85 149 399.45V405.65C149 406.25 148.6 406.65 148 406.65H129.9V454.55C129.9 455.15 129.4 455.55 128.8 455.55H121.5C120.9 455.55 120.5 455.15 120.5 454.55V406.65H102.3C101.7 406.65 101.3 406.25 101.3 405.65V399.45C101.3 398.85 101.7 398.35 102.3 398.35H148Z" fill="white"/>
<path d="M201.3 398.35C201.9 398.35 202.3 398.85 202.3 399.45V405.65C202.3 406.25 201.9 406.65 201.3 406.65H169.7V422.65H196.9C197.5 422.65 197.9 423.05 197.9 423.65V429.95C197.9 430.45 197.5 430.95 196.9 430.95H169.7V447.15H201.3C201.9 447.15 202.3 447.65 202.3 448.15V454.45C202.3 455.05 201.9 455.45 201.3 455.45H161.3C160.8 455.45 160.3 455.05 160.3 454.45V399.35C160.3 398.75 160.8 398.25 161.3 398.25H201.3V398.35Z" fill="white"/>
<path d="M213.7 451.05C213.1 450.75 212.9 450.25 213.3 449.65L216.2 443.45C216.5 442.95 216.9 442.65 217.5 443.15C221.2 445.45 226.2 448.45 233.4 448.45C236.9 448.45 239.6 447.65 241.4 446.25C243.6 444.65 244.5 442.35 244.5 439.75C244.5 435.85 241.4 433.75 237.3 432.15C232.5 430.25 226.9 429.25 221.5 426.25C216.9 423.65 213.6 420.05 213.6 413.55C213.6 408.85 215.4 404.85 219.1 402.05C222.6 399.25 227.8 397.65 234.7 397.65C242.5 397.65 248.4 399.75 252.2 401.85C252.8 402.15 252.9 402.65 252.6 403.25L249.7 409.35C249.4 409.95 248.9 410.15 248.3 409.75C244.3 407.35 239.3 405.75 234.3 405.75C230.5 405.75 227.7 406.55 226.1 408.05C224.5 409.35 223.7 410.95 223.7 413.05C223.7 416.75 226.8 418.65 231.5 420.25C236.9 422.15 242.9 423.15 247.9 426.25C251.8 428.65 255 432.65 255 438.85C255 444.45 252.6 448.85 248.8 451.85C245.1 454.75 239.8 456.35 233.8 456.35C224.4 456.45 217.9 453.65 213.7 451.05Z" fill="white"/>
<path d="M309.9 398.35C310.5 398.35 310.9 398.85 310.9 399.45V405.65C310.9 406.25 310.5 406.65 309.9 406.65H291.8V454.55C291.8 455.15 291.3 455.55 290.7 455.55H283.4C282.8 455.55 282.4 455.15 282.4 454.55V406.65H264.2C263.6 406.65 263.2 406.25 263.2 405.65V399.45C263.2 398.85 263.6 398.35 264.2 398.35H309.9Z" fill="white"/>
<path d="M63.4 237.75C64.3 237.55 65.2 237.45 66.3 237.25C89.2 233.95 100.9 205.35 112.8 171.05C115.4 163.65 117.8 156.25 120.2 149.05C133.2 109.95 141.7 84.15 157.6 84.15C173.5 84.15 182.1 109.95 195 149.05C197.4 156.25 199.8 163.65 202.4 171.05C214.3 205.35 226 234.05 248.9 237.25C250 237.45 250.9 237.55 251.8 237.75C255.9 238.55 259.9 239.25 304.7 239.25C304.8 238.35 304.9 237.35 304.9 236.45V95.95C304.9 86.75 300 78.35 292.1 73.75L170.3 3.45C162.4 -1.15 152.6 -1.15 144.7 3.45L23 73.75C15.1 78.35 10.2 86.75 10.2 95.95V236.45C10.2 237.35 10.3 238.35 10.4 239.25C55.3 239.25 59.3 238.55 63.4 237.75Z" fill="white"/>
<path d="M249.1 252.55C248.4 252.45 247.7 252.25 246.8 252.15C213 247.25 199.3 207.75 188.3 175.95C185.7 168.45 183.2 160.95 180.8 153.75C175.9 139.05 171.3 125.15 166.9 114.85C161.8 102.95 158.7 100.05 157.6 99.35C156.6 100.05 153.4 102.95 148.3 114.85C143.9 125.15 139.3 139.05 134.4 153.75C132 160.95 129.5 168.45 126.9 175.95C115.9 207.75 102.2 247.25 68.4 252.15C67.5 252.25 66.8 252.45 66.1 252.55C61.2 253.45 57.1 254.15 17.3 254.35C18.9 256.05 20.8 257.55 22.9 258.75L144.6 329.05C152.5 333.65 162.3 333.65 170.2 329.05L291.9 258.75C294 257.55 295.9 256.05 297.5 254.35C258.1 254.15 254.1 253.45 249.1 252.55Z" fill="white"/>
</svg>
